<svg xmlns="http://www.w3.org/2000/svg" viewBox="0 0 204 26" preserveAspectRatio="xMinYMin meet">
  <g transform="translate(0.000000, 1.000000)" style="fill:currentColor;">
    <path d="M200.731364,17.6832207 C200.153361,16.5190104 198.917455,15.6773266 197.544067,15.6773266 C197.215116,15.6773266 196.198751,15.6526666 195.318429,16.1478129 C195.841008,15.3554491 197.407304,13.9186812 199.385329,12.8537597 L200.731364,13.8693612 L200.731364,17.6832207 Z M202.846152,9.51038658 C202.07668,10.7479278 200.374341,11.962107 199.385329,12.655831 L198.148703,11.7142094 L198.148703,8.07296974 C198.643209,9.06456023 199.659574,9.90624404 200.978258,9.90624404 C201.747729,9.90624404 202.242236,9.78229523 202.846152,9.51038658 L202.846152,9.51038658 Z M204,12.5812021 L201.774362,11.0451454 C203.258601,9.88158406 203.780459,8.39484728 203.780459,7.33057477 C203.780459,7.18196599 203.752387,6.90875945 203.725754,6.66215972 L203.642977,6.66215972 C203.423436,7.20597701 202.846152,7.67711228 201.939917,7.67711228 C201.061035,7.67711228 200.539176,7.23128593 199.989245,6.68681969 L194.880068,9.23782898 L194.880068,12.9777085 L196.83002,14.3645075 C194.880068,15.9245753 194.494972,16.8908569 194.494972,17.7825096 C194.494972,18.6981733 195.072256,19.4665261 196.061268,19.8130636 L196.143326,19.6891148 C195.896433,19.4911861 195.676172,19.3672373 195.676172,18.896751 C195.676172,18.5502135 196.061268,18.0050983 196.94015,18.0050983 C198.066645,18.0050983 198.75334,18.6981733 199.110363,19.0700197 C199.110363,19.0453597 204,16.3704016 204,16.3704016 L204,12.5812021 Z M188.259299,13.5533242 L188.259299,8.37732572 L190.786535,11.9432876 L188.259299,13.5533242 Z M193.918408,15.4359185 L191.281042,17.3172148 L188.259299,15.1633609 L188.259299,13.8258818 L193.479327,10.5065197 L190.84196,6.81660902 L185.045369,9.68949585 L185.045369,16.6494487 L189.028771,19.2497779 L194.055891,15.6091872 L193.918408,15.4359185 Z M184.331322,16.9466663 L183.506425,17.4418126 L182.215815,16.3275712 L182.215815,9.26897842 L183.259532,8.55059448 L183.12133,8.4019857 L182.187742,9.04509183 L179.440965,6.841269 L176.336445,9.0210808 L173.617021,6.841269 L170.567926,8.99642083 L168.507844,6.841269 L165.210416,8.92179196 L165.320546,9.09506072 L166.144003,8.59991442 L167.326643,9.81344466 L167.326643,16.450871 L166.419689,17.2685438 L169.057055,19.2744379 L171.611644,17.1939149 L170.567926,16.3022622 L170.567926,9.21900953 L171.254621,8.77318318 L173.150587,10.259271 L173.150587,16.450871 L172.270985,17.2685438 L174.935704,19.2744379 L177.435588,17.1939149 L176.39187,16.3022622 L176.39187,9.21900953 L177.051212,8.74787426 L178.974532,10.259271 L178.974532,16.3522311 L178.20506,17.0706151 L180.897131,19.2744379 L184.440013,17.0952751 L184.331322,16.9466663 Z M165.78842,17.0453062 L164.908818,17.5657614 L163.700265,16.475531 L163.700265,9.26897842 L164.71663,8.55059448 L164.579147,8.4019857 L163.727617,8.99642083 L161.72224,6.841269 L158.426252,8.92179196 L158.535662,9.09506072 L159.359839,8.59991442 L160.458982,9.83810464 L160.458982,16.475531 L158.975463,17.4911325 L159.112946,17.6150813 L159.854345,17.144595 L162.437006,19.2744379 L165.89855,17.1939149 L165.78842,17.0453062 Z M162.107336,1.81387928 L159.69023,3.64650462 L161.749592,5.75168757 L164.167418,3.91906222 L162.107336,1.81387928 Z M148.811093,14.1970793 L147.465058,14.8161744 C146.640881,13.8505418 146.091669,12.4884028 146.091669,10.7297573 C146.091669,10.0113734 146.173727,9.0210808 146.448693,8.32735683 L148.837726,7.36172421 L148.811093,14.1970793 Z M158.591087,2.58158317 C158.591087,0.550380143 156.448227,-0.0687149634 154.66239,0.00591390163 L154.66239,0.179182658 C155.73346,0.253162576 156.558357,0.649668981 156.558357,1.29342406 C156.558357,1.73925041 156.201334,2.30902557 155.129544,2.30902557 C154.278014,2.30902557 152.877273,1.86319922 151.55859,1.46734176 C150.102424,1.02151541 148.729036,0.600349036 147.575188,0.600349036 C145.322198,0.600349036 143.619138,2.11109684 143.619138,3.96838216 C143.619138,5.47912997 144.909749,5.99958519 145.432328,6.19751392 L145.45968,6.12288505 C145.13001,5.92495632 144.909749,5.70236762 144.909749,5.05796359 C144.909749,4.51349735 145.35027,3.79511341 146.503398,3.79511341 C147.547115,3.79511341 148.921224,4.21627978 150.734413,4.68676611 C152.299989,5.08327251 153.975696,5.45447 154.910003,5.55375884 L154.910003,8.84781205 L153.151519,10.1599822 L154.910003,11.5227701 L154.910003,16.0303536 C154.003049,16.5008399 152.959331,16.6494487 152.053096,16.6494487 C150.37739,16.6494487 148.837726,16.2282823 147.575188,14.9647832 L152.327342,12.8842602 L152.327342,5.75168757 L146.530751,8.08010816 C147.135387,6.69201126 148.261882,5.65239873 149.497068,4.98398367 L149.470435,4.90870586 C146.036964,5.75168757 142.905092,8.59991442 142.905092,12.1172053 C142.905092,16.3275712 146.640881,19.4477067 150.953954,19.4477067 C155.62405,19.4477067 158.370827,16.1536535 158.316122,12.6616715 L158.234064,12.6616715 C157.54737,13.9991506 156.420874,15.2620008 155.129544,15.9310648 L155.129544,11.5227701 L156.969366,10.1852911 L155.129544,8.84781205 L155.129544,5.55375884 C156.832603,5.55375884 158.591087,4.53815732 158.591087,2.58158317 L158.591087,2.58158317 Z M133.07975,17.0453062 L132.200148,17.5657614 L130.991595,16.475531 L130.991595,0.476400225 L126.65117,3.1760183 C127.145676,3.32462708 127.749592,3.57187576 127.749592,4.6114883 L127.749592,16.475531 L126.266794,17.4911325 L126.402837,17.6150813 L127.145676,17.144595 L129.728337,19.2744379 L133.189161,17.1939149 L133.07975,17.0453062 Z M140.111527,16.8473774 L139.06853,17.4418126 L133.271938,9.63952696 L133.574256,9.26897842 C134.205526,9.61551594 134.782809,10.0860023 135.991362,10.0860023 C137.171843,10.0860023 138.738859,8.94645194 138.875622,6.841269 C138.574023,7.21311543 137.969387,7.65894178 136.980375,7.65894178 C136.266328,7.65894178 135.550842,7.2377754 135.11248,6.841269 L131.156431,12.0918964 L136.403091,19.2990979 L140.221658,17.0206462 L140.111527,16.8473774 Z M126.87071,6.98922883 C126.430909,7.26178643 126.045813,7.41104416 125.634805,7.41104416 C125.195724,7.41104416 124.645792,7.16314653 124.370827,6.841269 C124.370827,6.86657791 122.283392,8.87247202 122.283392,8.87247202 L120.194517,6.841269 L116.789118,8.97176086 L116.897809,9.14502961 L117.805483,8.59991442 L119.041389,9.81344466 L119.041389,16.475531 L117.55715,17.4911325 L117.695353,17.6150813 L118.437472,17.144595 L121.210882,19.2744379 L124.72713,17.169255 L124.61844,17.0206462 L123.711485,17.5157925 L122.283392,16.3522311 L122.283392,9.04509183 C122.859956,9.61551594 123.520017,10.1106622 124.316122,10.1106622 C125.743495,10.1106622 126.705155,8.57525445 126.87071,6.98922883 L126.87071,6.98922883 Z M110.141717,15.6831671 L110.141717,8.3520168 L112.943199,10.2339621 L112.943199,17.5657614 L110.141717,15.6831671 Z M110.552726,19.2497779 L116.157129,16.1036846 L116.157129,9.21900953 L112.530751,6.81660902 L106.926347,9.71415583 L106.926347,16.5254999 L105.827924,17.3172148 L105.937335,17.4664725 L106.844289,16.7980575 L110.552726,19.2497779 Z M100.772732,16.5008399 C100.772732,17.3425237 100.306298,18.2841453 99.0970255,18.2841453 C98.9048375,18.2841453 98.4657563,18.2588364 98.2728485,18.2341764 L98.2728485,11.62141 C98.5478141,11.3981724 98.9048375,11.1009548 99.5368265,11.1009548 C100.11339,11.1009548 100.443061,11.3488524 100.772732,11.62141 L100.772732,16.5008399 Z M100.772732,11.3735124 C100.498486,11.1256148 100.141463,10.9030261 99.5368265,10.9030261 C98.9321901,10.9030261 98.5204615,11.1755837 98.2728485,11.3735124 L98.2728485,9.19434956 C98.5204615,9.39227829 98.9321901,9.68949585 99.5368265,9.68949585 C100.141463,9.68949585 100.498486,9.44224718 100.772732,9.19434956 L100.772732,11.3735124 Z M100.772732,8.94645194 C100.471134,9.2436695 100.11339,9.49156712 99.5368265,9.49156712 C98.9048375,9.49156712 98.5751667,9.19434956 98.2728485,8.94645194 L98.2728485,3.81977338 L99.0970255,3.22533825 L100.772732,4.51349735 L100.772732,8.94645194 Z M105.497534,2.13575682 L104.344406,3.07672946 L101.761744,1.04617539 L98.2728485,3.57187576 L98.2728485,1.19478417 L98.0533079,1.19478417 L98.0533079,18.2095165 C97.6689319,18.1601965 96.8721075,17.9616188 95.9932254,17.838319 L95.9932254,3.59718468 C95.9932254,2.55627425 95.1690484,1.1201553 93.108246,1.1201553 C90.9934582,1.1201553 89.7568329,2.680872 89.7568329,4.04236208 L89.8396105,4.04236208 C89.9490209,3.42391592 90.4161744,2.87815179 91.1028686,2.87815179 C91.8176352,2.87815179 92.4215518,3.27530714 92.4215518,4.66210614 L92.4215518,8.72386323 C90.4715994,8.79784315 89.2896793,9.88807353 89.2896793,11.0769438 C89.2896793,11.7453589 89.7568329,13.008209 91.2403514,13.0581779 L91.2403514,12.9588891 C90.7458452,12.7609604 90.6364348,12.5377227 90.6364348,12.2898251 C90.6364348,11.69539 91.267704,11.4974612 92.147306,11.4974612 L92.3668466,11.4974612 L92.3668466,18.0362477 C90.69114,18.556054 89.9216683,19.5716555 89.9216683,20.8351546 C89.9216683,22.5684911 91.459892,23.9059702 93.7128824,23.9059702 C95.3065312,23.9059702 96.4323066,23.6580726 97.8884725,23.360855 C99.0696729,23.1382663 100.361003,22.8897197 101.047698,22.8897197 C101.92658,22.8897197 102.311676,23.2375551 102.311676,23.8066813 C102.311676,24.5250653 102.009357,24.8969117 101.542204,25.0208605 L101.542204,25.1195004 C103.437451,24.7976229 104.535874,23.8066813 104.535874,22.2712736 C104.535874,20.6865458 102.860887,19.7202643 100.992992,19.7202643 C100.031333,19.7202643 98.2728485,19.9928219 96.8447549,20.2900394 C95.2511062,20.611917 93.8777178,20.7605258 93.3832116,20.7605258 C92.5863872,20.7605258 91.5973748,20.4386482 91.5973748,19.4730156 C91.5973748,18.6060229 92.3941992,17.9122989 94.372224,17.9122989 C95.4432942,17.9122989 96.4877316,18.0609077 97.8064147,18.3334653 C99.2071557,18.6060229 100.168815,18.9772203 101.377368,18.9772203 C103.053075,18.9772203 104.399111,18.4327541 104.399111,16.2282823 L104.399111,3.29996711 L105.635736,2.28371665 L105.497534,2.13575682 Z M85.2616492,8.00547929 L84.4921774,8.52593451 L82.294612,6.841269 L79.7393035,8.92179196 L80.7837409,9.81344466 L80.7837409,17.5657614 L78.1737271,15.9557247 L78.1737271,9.66483588 L79.0799619,9.09506072 L76.3878903,6.841269 L73.8880068,8.92179196 L74.9317244,9.81344466 L74.9317244,17.3172148 L74.766889,17.4171526 L72.3224304,15.806467 L72.3224304,9.63952696 C72.3224304,8.20340802 71.525606,7.78289059 70.509241,7.21311543 C69.6577114,6.7426291 69.2179104,6.29680275 69.2179104,5.57841881 C69.2179104,4.78605495 69.9873822,4.46352846 70.2342754,4.33957965 C69.3553932,4.31427073 66.9102149,5.10793249 66.8555097,7.11382659 C66.8281571,8.15343913 67.3773685,8.59991442 67.9546523,9.09506072 C68.5312163,9.59085596 69.0804276,10.0613423 69.0804276,10.928335 L69.0804276,16.9713262 L67.8992273,17.8130101 L68.0367101,17.9369589 L69.1632053,17.144595 L72.10217,19.2990979 L74.9043718,17.5411014 L77.9815391,19.2990979 L84.0250238,16.0796735 L84.0250238,9.09506072 L85.3710596,8.15343913 L85.2616492,8.00547929 Z M61.6081296,13.5533242 L61.6081296,8.37732572 L64.1360855,11.9432876 L61.6081296,13.5533242 Z M62.3776014,19.2497779 L67.4047211,15.6091872 L67.2672383,15.4359185 L64.6305917,17.3172148 L61.6081296,15.1633609 L61.6081296,13.8258818 L66.8281571,10.5065197 L64.1907907,6.81660902 L58.3941992,9.68949585 L58.3941992,16.5254999 L57.267704,17.3172148 L57.4051868,17.4664725 L58.4769768,16.6981197 L62.3776014,19.2497779 Z M59.2464486,1.6153016 C59.2464486,1.29342406 59.163671,1.02151541 59.0261882,0.649668981 L58.9441304,0.649668981 C58.587107,1.51666171 58.2020112,1.98714803 57.0762358,1.98714803 C56.0872235,1.98714803 55.3177517,1.44203284 54.9060231,1.04617539 C54.9060231,1.07083536 51.6093151,4.48883738 51.6093151,4.48883738 L51.7741505,4.6114883 L52.7077379,3.64650462 C53.4225045,4.14165092 54.0544935,4.71142608 55.6474225,4.73608605 L55.6474225,13.4047154 L48.8891712,2.85349181 C48.3673124,2.06112795 47.4610776,0.87290663 45.9228538,0.87290663 C44.1096644,0.87290663 42.7362761,2.28371665 42.9558167,4.66210614 L43.0652271,4.66210614 C43.2027099,4.067671 43.5878057,3.32462708 44.3839102,3.32462708 C45.0158992,3.32462708 45.537758,3.86974227 45.8400762,4.36488857 L45.8400762,7.75758167 C43.7526411,7.75758167 42.5714407,8.6245744 42.5714407,10.1106622 C42.5714407,10.7297573 43.0652271,12.0672364 44.4940404,12.2898251 L44.4940404,12.2158452 C44.3018524,12.0425764 44.1096644,11.8939676 44.1096644,11.5474301 C44.1096644,10.977655 44.5760982,10.6557774 45.4283476,10.6557774 C45.5651106,10.6557774 45.7580184,10.6804374 45.8400762,10.7050974 L45.8400762,15.113392 C43.3948979,15.1387009 41.4996507,16.3522311 41.4996507,18.4327541 C41.4996507,20.4139882 43.3948979,21.3303009 45.3729226,21.2310121 L45.3729226,21.1570322 C44.137017,21.0330833 43.5050281,20.4633082 43.5050281,19.6456354 C43.5050281,18.7546316 44.2190748,18.2841453 45.1260294,18.2841453 C46.0596168,18.2841453 46.7189584,18.8039516 47.2962422,19.3983867 L50.5929501,16.0550136 L50.4554673,15.9310648 L49.6039378,16.7980575 C48.3399598,15.782456 47.5157828,15.3119697 46.0596168,15.113392 L46.0596168,4.68676611 L55.3724569,19.3244068 L55.8669631,19.3244068 L55.8669631,4.73608605 C57.6527998,4.63679722 59.2464486,3.42391592 59.2464486,1.6153016 L59.2464486,1.6153016 Z M32.6633217,13.5533242 L32.6633217,8.37732572 L35.1905578,11.9432876 L32.6633217,13.5533242 Z M33.4320737,19.2497779 L38.4599132,15.6091872 L38.3224304,15.4359185 L35.685064,17.3172148 L32.6633217,15.1633609 L32.6633217,13.8258818 L37.8826294,10.5065197 L35.245263,6.81660902 L29.4486715,9.68949585 L29.4486715,16.5254999 L28.3228962,17.3172148 L28.4596592,17.4664725 L29.5314491,16.6981197 L33.4320737,19.2497779 Z M27.6081296,8.4019857 L26.7018948,9.04509183 L23.9543982,6.841269 L20.7678205,9.07040075 L20.7678205,0.476400225 L16.4273949,3.1760183 C16.9219011,3.32462708 17.5265375,3.57187576 17.5265375,4.6114883 L17.5265375,16.475531 L16.0430189,17.4911325 L16.1805017,17.6150813 L16.9219011,17.144595 L19.5045623,19.2744379 L22.9653858,17.1939149 L22.8559754,17.0453062 L21.9770933,17.5657614 L20.7678205,16.475531 L20.7678205,9.31829837 L21.5919975,8.77318318 L23.4879644,10.259271 L23.4879644,16.475531 C23.4879644,20.4139882 22.5263046,21.2310121 20.5482799,21.8754161 L20.5482799,21.974056 C23.8176352,22.0980048 26.7566,21.1070633 26.7566,16.0550136 L26.7566,9.26897842 L27.7456124,8.55059448 L27.6081296,8.4019857 Z M5.90600191,14.1970793 L4.55996613,14.8161744 C3.73578914,13.8505418 3.18657775,12.4884028 3.18657775,10.7297573 C3.18657775,10.0113734 3.26935535,9.0210808 3.54360114,8.32735683 L5.93407431,7.36172421 L5.90600191,14.1970793 Z M15.6859956,2.58158317 C15.6859956,0.550380143 13.5431354,-0.0687149634 11.7580184,0.00591390163 L11.7580184,0.179182658 C12.8290886,0.253162576 13.6532656,0.649668981 13.6532656,1.29342406 C13.6532656,1.73925041 13.2962422,2.30902557 12.2244522,2.30902557 C11.3729226,2.30902557 9.97218164,1.86319922 8.65349847,1.46734176 C7.19733249,1.02151541 5.82394411,0.600349036 4.67009633,0.600349036 C2.41782576,0.600349036 0.714046787,2.11109684 0.714046787,3.96838216 C0.714046787,5.47912997 2.00537737,5.99958519 2.52723616,6.19751392 L2.55458876,6.12288505 C2.22491796,5.92495632 2.00537737,5.70236762 2.00537737,5.05796359 C2.00537737,4.51349735 2.44517836,3.79511341 3.59902615,3.79511341 C4.64274373,3.79511341 6.01613211,4.21627978 7.82932148,4.68676611 C9.39489785,5.08327251 11.0713242,5.45447 12.0049116,5.55375884 L12.0049116,8.84781205 L10.2471472,10.1599822 L12.0049116,11.5227701 L12.0049116,16.0303536 C11.0986768,16.5008399 10.0542394,16.6494487 9.14800466,16.6494487 C7.47229808,16.6494487 5.93407431,16.2282823 4.67009633,14.9647832 L9.42297026,12.8842602 L9.42297026,5.75168757 L3.62637874,8.08010816 C4.23029533,6.69201126 5.35679052,5.65239873 6.5934159,4.98398367 L6.5653435,4.90870586 C3.13187255,5.75168757 2.7533531e-14,8.59991442 2.7533531e-14,12.1172053 C2.7533531e-14,16.3275712 3.73578914,19.4477067 8.04886207,19.4477067 C12.7189584,19.4477067 15.466455,16.1536535 15.4117498,12.6616715 L15.3289722,12.6616715 C14.642278,13.9991506 13.5157828,15.2620008 12.2244522,15.9310648 L12.2244522,11.5227701 L14.0649942,10.1852911 L12.2244522,8.84781205 L12.2244522,5.55375884 C13.9282312,5.55375884 15.6859956,4.53815732 15.6859956,2.58158317 L15.6859956,2.58158317 Z" id="logo">
    </path>
  </g>
</svg>